<svg width="119" height="22" viewBox="0 0 119 22" fill="none" xmlns="http://www.w3.org/2000/svg">
<path d="M3.044 20.586C1.83067 20.2913 0.929333 19.2773 0.34 17.544C0.322667 17.44 0.314 17.232 0.314 16.92C0.314 16.4867 0.331333 16.062 0.366 15.646C0.400667 15.2127 0.444 14.9613 0.496 14.892C0.548 14.8573 0.574 14.7533 0.574 14.58C0.556667 14.476 0.617333 14.19 0.756 13.722C0.877333 13.41 0.912 13.1413 0.86 12.916C0.877334 12.8813 0.903334 12.8207 0.938 12.734C0.99 12.6473 1.05067 12.5607 1.12 12.474C1.20667 12.3873 1.25 12.3007 1.25 12.214C1.26733 12.11 1.26733 12.0407 1.25 12.006V11.98C1.25 11.9107 1.26733 11.824 1.302 11.72C1.354 11.5987 1.406 11.5033 1.458 11.434C1.51 11.382 1.55333 11.3127 1.588 11.226C1.64 11.1393 1.67467 11.0787 1.692 11.044C1.70933 10.9227 1.83933 10.5413 2.082 9.9C2.342 9.24133 2.51533 8.84267 2.602 8.704V8.652C2.67133 8.47867 2.76667 8.29667 2.888 8.106C2.92267 7.86333 3.044 7.52533 3.252 7.092C3.65067 6.208 4.20533 5.194 4.916 4.05C5.644 2.88867 6.216 2.10867 6.632 1.71C7.08267 1.19 7.49 0.929999 7.854 0.929999C8.04467 0.929999 8.218 1.008 8.374 1.164C8.49533 1.28533 8.59067 1.45867 8.66 1.684C8.74667 1.90933 8.79 2.10867 8.79 2.282C8.79 2.52467 8.72067 2.65467 8.582 2.672C8.40867 2.79333 8.14 3.14867 7.776 3.738C7.42933 4.32733 6.96133 5.15933 6.372 6.234L5.982 6.962C5.75667 7.44733 5.55733 7.85467 5.384 8.184C5.228 8.51333 5.124 8.73 5.072 8.834L4.968 9.068C4.552 9.952 4.162 10.9053 3.798 11.928C3.71133 12.032 3.65067 12.1447 3.616 12.266C3.59867 12.37 3.59 12.4393 3.59 12.474C3.55533 12.4567 3.52067 12.5087 3.486 12.63C3.46867 12.734 3.44267 12.8293 3.408 12.916C3.28667 13.02 3.226 13.2713 3.226 13.67C3.07 14.086 2.93133 14.606 2.81 15.23C2.68867 15.854 2.628 16.3653 2.628 16.764C2.628 17.1453 2.68867 17.4573 2.81 17.7C2.94867 17.9427 3.15667 18.1247 3.434 18.246C3.85 18.454 4.162 18.558 4.37 18.558C4.49133 18.5753 4.67333 18.5667 4.916 18.532C5.176 18.4973 5.47067 18.454 5.8 18.402H5.774C5.86067 18.3847 6.33733 18.2807 7.204 18.09C7.62 18.038 7.96667 17.96 8.244 17.856C8.38267 17.8213 8.57333 17.7693 8.816 17.7C9.076 17.6133 9.26667 17.57 9.388 17.57C9.50933 17.5527 9.596 17.5613 9.648 17.596C9.752 17.7 9.84733 17.8473 9.934 18.038C10.038 18.2113 10.064 18.3673 10.012 18.506C9.97733 18.5927 9.79533 18.7747 9.466 19.052C9.13667 19.3467 8.77267 19.624 8.374 19.884C7.97533 20.144 7.62867 20.3173 7.334 20.404C6.74467 20.664 5.89533 20.794 4.786 20.794C4.006 20.794 3.42533 20.7247 3.044 20.586ZM14.8683 19C13.8803 19 13.083 18.7227 12.4763 18.168C11.8696 17.6133 11.5663 16.8247 11.5663 15.802C11.5663 15.4033 11.5923 14.9613 11.6443 14.476C11.679 14.06 11.8436 13.488 12.1383 12.76C12.4503 12.032 12.8663 11.3213 13.3863 10.628C13.9236 9.93467 14.5476 9.42333 15.2583 9.094C15.5876 8.938 15.865 8.834 16.0903 8.782C16.3156 8.71267 16.5756 8.678 16.8703 8.678C17.581 8.678 18.153 8.808 18.5863 9.068C19.037 9.328 19.349 9.62267 19.5223 9.952C19.713 10.2813 19.8083 10.5673 19.8083 10.81V10.94V11.018C19.8083 11.226 19.687 11.6073 19.4443 12.162C19.2016 12.7167 18.8116 13.2367 18.2743 13.722C17.7543 14.2073 17.0783 14.476 16.2463 14.528C15.8303 14.528 15.423 14.4933 15.0243 14.424C14.643 14.3373 14.4003 14.294 14.2963 14.294C14.0363 14.294 13.8716 14.3893 13.8023 14.58C13.733 14.7707 13.6983 15.0913 13.6983 15.542C13.7503 16.0273 13.8803 16.3653 14.0883 16.556C14.3136 16.7467 14.6343 16.842 15.0503 16.842C15.2583 16.842 15.501 16.7813 15.7783 16.66C16.0556 16.5213 16.385 16.3047 16.7663 16.01C16.9743 15.8367 17.139 15.7153 17.2603 15.646C17.3816 15.5767 17.529 15.542 17.7023 15.542C17.8583 15.542 18.0403 15.646 18.2483 15.854C18.4563 16.062 18.569 16.2613 18.5863 16.452C18.5516 16.66 18.361 16.972 18.0143 17.388C17.6676 17.804 17.217 18.1767 16.6623 18.506C16.1076 18.8353 15.5096 19 14.8683 19ZM15.7783 12.734C16.1076 12.734 16.333 12.6993 16.4543 12.63C16.6276 12.5433 16.8876 12.3267 17.2343 11.98C17.5983 11.616 17.789 11.3647 17.8063 11.226C17.8063 11.0527 17.7283 10.914 17.5723 10.81C17.4336 10.6887 17.2343 10.6107 16.9743 10.576H16.6883C16.463 10.576 16.1336 10.7667 15.7003 11.148C15.2843 11.512 14.9203 11.9367 14.6083 12.422C14.6256 12.5087 14.7556 12.5867 14.9983 12.656C15.241 12.708 15.501 12.734 15.7783 12.734Z" fill="#633E12"/>
<path d="M23.4999 20.716C22.9626 20.5253 22.4426 20.248 21.9399 19.884C21.4546 19.52 21.0992 19.0607 20.8739 18.506C20.5966 17.726 20.4579 16.8073 20.4579 15.75C20.4579 14.7273 20.5186 13.8607 20.6399 13.15C20.7612 12.422 20.9692 11.6853 21.2639 10.94L21.4979 10.394C21.7752 9.68333 21.9746 9.21533 22.0959 8.99C22.3906 8.314 22.9106 7.43867 23.6559 6.364C24.3492 5.324 24.8952 4.55267 25.2939 4.05C25.7099 3.53 26.1346 3.088 26.5679 2.724C27.0012 2.34267 27.6339 1.866 28.4659 1.294C28.9686 0.929999 29.5839 0.747999 30.3119 0.747999C30.8839 0.747999 31.4039 0.886666 31.8719 1.164C32.3572 1.44133 32.7212 1.87467 32.9639 2.464C33.1372 2.75867 33.2239 3.166 33.2239 3.686C33.2239 4.518 33.0246 5.41933 32.6259 6.39C32.2272 7.36067 31.7506 8.09733 31.1959 8.6C31.0746 8.72133 30.9099 8.782 30.7019 8.782C30.4939 8.782 30.2686 8.72133 30.0259 8.6C29.7832 8.47867 29.5666 8.33133 29.3759 8.158C29.2199 7.86333 29.1332 7.69 29.1159 7.638C29.0986 7.586 29.1332 7.55133 29.2199 7.534C29.3759 7.34333 29.6012 6.97933 29.8959 6.442C30.2079 5.88733 30.4159 5.454 30.5199 5.142L30.6759 4.414C30.7799 3.96333 30.8319 3.66867 30.8319 3.53C30.8319 3.374 30.7712 3.23533 30.6499 3.114C30.5979 3.062 30.5286 3.036 30.4419 3.036C30.3032 3.036 30.0606 3.12267 29.7139 3.296C29.3152 3.46933 28.8386 3.82467 28.2839 4.362C27.7466 4.882 27.2092 5.506 26.6719 6.234C25.8746 7.274 25.2592 8.132 24.8259 8.808C24.4099 9.484 24.0892 10.1687 23.8639 10.862L23.5779 11.538C23.5952 11.6073 23.5692 11.7807 23.4999 12.058C23.4306 12.3353 23.3526 12.5607 23.2659 12.734C23.0232 13.7393 22.9019 14.6493 22.9019 15.464C22.9019 16.1053 22.9626 16.66 23.0839 17.128C23.2226 17.596 23.4132 17.9427 23.6559 18.168C23.7946 18.2893 23.9939 18.35 24.2539 18.35C24.5312 18.35 24.8432 18.2893 25.1899 18.168C25.5539 18.0293 25.9352 17.8733 26.3339 17.7C26.7326 17.5267 27.0099 17.4053 27.1659 17.336C27.5646 17.18 27.9372 16.998 28.2839 16.79C28.6479 16.582 28.9166 16.3913 29.0899 16.218C29.5406 15.8887 29.9046 15.724 30.1819 15.724C30.4072 15.6547 30.5806 15.724 30.7019 15.932C30.8406 16.14 30.9099 16.426 30.9099 16.79C30.9099 17.0327 30.7452 17.3273 30.4159 17.674C30.0866 18.0033 29.6966 18.298 29.2459 18.558C29.0552 18.7487 28.6306 18.974 27.9719 19.234C27.4172 19.6327 26.7672 19.988 26.0219 20.3C25.2939 20.612 24.6266 20.768 24.0199 20.768C23.8812 20.768 23.7079 20.7507 23.4999 20.716ZM34.5125 18.818C34.3045 18.818 34.1399 18.7833 34.0185 18.714C33.8972 18.6447 33.7239 18.5147 33.4985 18.324C33.1519 17.96 32.8832 17.5873 32.6925 17.206C32.5019 16.8073 32.4325 16.4607 32.4845 16.166C32.5365 16.0447 32.5539 15.9233 32.5365 15.802C32.5365 15.6807 32.5365 15.6027 32.5365 15.568C32.4672 15.4987 32.4325 15.4553 32.4325 15.438C32.4325 15.4033 32.4499 15.3773 32.4845 15.36C32.5192 15.3253 32.5452 15.2907 32.5625 15.256C32.6665 15.256 32.7012 15.1607 32.6665 14.97C32.6319 14.8313 32.6925 14.528 32.8485 14.06C33.0045 13.592 33.2039 13.1587 33.4465 12.76C33.6372 12.448 33.9145 12.058 34.2785 11.59C34.6599 11.122 34.9979 10.7667 35.2925 10.524C36.1592 9.77867 36.9392 9.328 37.6325 9.172C37.9792 9.08533 38.3172 9.042 38.6465 9.042C39.1492 9.042 39.5392 9.18067 39.8165 9.458C40.1979 9.614 40.4752 9.83933 40.6485 10.134C40.8219 10.4287 40.9345 10.8187 40.9865 11.304C41.0039 11.408 41.0125 11.5813 41.0125 11.824C41.0125 13.1067 40.5272 14.4413 39.5565 15.828C39.1579 16.4 38.7592 16.8593 38.3605 17.206C37.9619 17.5527 37.4765 17.8993 36.9045 18.246C36.5925 18.454 36.2632 18.5927 35.9165 18.662C35.5699 18.7313 35.1019 18.7833 34.5125 18.818ZM37.1645 15.646C37.4939 15.3513 37.7279 15.0567 37.8665 14.762C38.0225 14.45 38.2392 13.9127 38.5165 13.15C38.6205 12.994 38.6725 12.682 38.6725 12.214C38.6725 11.798 38.6119 11.564 38.4905 11.512C38.4039 11.4427 38.2999 11.408 38.1785 11.408C38.0225 11.408 37.7712 11.5293 37.4245 11.772C36.8179 12.292 36.3065 12.838 35.8905 13.41C35.4919 13.9647 35.2145 14.606 35.0585 15.334C35.0412 15.4033 35.0325 15.5073 35.0325 15.646C35.0325 16.2353 35.2405 16.53 35.6565 16.53C36.0552 16.53 36.5579 16.2353 37.1645 15.646ZM45.3105 19.104C45.1025 19.1387 44.9378 19.156 44.8165 19.156C44.1058 19.156 43.4731 18.9307 42.9185 18.48C42.3811 18.012 42.1125 17.4227 42.1125 16.712L42.0865 16.296C42.0865 15.4813 42.2685 14.5367 42.6325 13.462C42.9965 12.3873 43.4471 11.512 43.9845 10.836C44.4178 10.3333 44.7905 9.926 45.1025 9.614C45.4145 9.302 45.7005 9.094 45.9605 8.99C46.1858 8.90333 46.4718 8.82533 46.8185 8.756C47.1651 8.68667 47.4251 8.652 47.5985 8.652C47.9451 8.73867 48.2658 8.86 48.5605 9.016C48.8725 9.172 49.0285 9.34533 49.0285 9.536L49.1585 9.666C49.2798 9.666 49.4185 9.85667 49.5745 10.238C49.7478 10.6193 49.8345 10.966 49.8345 11.278C49.8345 11.434 49.8085 11.564 49.7565 11.668C49.6871 11.9973 49.5485 12.318 49.3405 12.63C49.1498 12.942 48.9851 13.098 48.8465 13.098C48.6558 13.098 48.5605 13.15 48.5605 13.254C48.5605 13.3407 48.4565 13.384 48.2485 13.384C48.0751 13.384 47.8931 13.3493 47.7025 13.28C47.5118 13.1933 47.3991 13.0893 47.3645 12.968C47.3645 12.8813 47.4338 12.5347 47.5725 11.928C47.6245 11.668 47.6505 11.4513 47.6505 11.278C47.6505 10.966 47.5465 10.81 47.3385 10.81C47.2865 10.81 47.1565 10.8447 46.9485 10.914C46.4978 11.1567 46.1338 11.4427 45.8565 11.772C45.5965 12.084 45.3625 12.5173 45.1545 13.072C44.9465 13.6267 44.7038 14.4327 44.4265 15.49C44.3745 15.698 44.3485 15.8887 44.3485 16.062C44.3485 16.27 44.3745 16.4433 44.4265 16.582C44.4785 16.7033 44.5305 16.7727 44.5825 16.79C44.6691 16.8247 44.8251 16.842 45.0505 16.842C45.4838 16.842 45.8305 16.764 46.0905 16.608C46.4025 16.4347 46.7058 16.244 47.0005 16.036C47.2951 15.8107 47.4771 15.672 47.5465 15.62C47.5811 15.5853 47.6505 15.49 47.7545 15.334C47.8585 15.1607 47.9711 15.048 48.0925 14.996C48.1965 14.84 48.3265 14.7447 48.4825 14.71C48.6385 14.6753 48.7945 14.658 48.9505 14.658C49.1065 14.658 49.2105 14.658 49.2625 14.658C49.4878 14.7273 49.7045 14.8833 49.9125 15.126C50.1205 15.3687 50.1551 15.5247 50.0165 15.594C49.9645 15.594 49.9298 15.6113 49.9125 15.646C49.8951 15.6807 49.8865 15.7067 49.8865 15.724C49.9211 15.8107 49.7825 16.0447 49.4705 16.426C49.1585 16.79 48.8118 17.1453 48.4305 17.492C48.0491 17.8213 47.7891 17.986 47.6505 17.986C47.5811 17.986 47.5205 17.9947 47.4685 18.012C47.4165 18.0293 47.3905 18.0727 47.3905 18.142C47.3905 18.2113 47.1218 18.376 46.5845 18.636C46.0645 18.8787 45.6398 19.0347 45.3105 19.104ZM56.8872 13.228C56.8352 13.2627 56.6445 13.4447 56.3152 13.774C56.4885 14.0167 56.5925 14.1553 56.6272 14.19L57.4072 15.412C57.8578 16.1053 58.1958 16.582 58.4212 16.842C58.6465 17.0847 59.0105 17.3533 59.5132 17.648C59.5652 17.7 59.6172 17.7867 59.6692 17.908C59.7212 18.0293 59.7385 18.1593 59.7212 18.298C59.6345 18.7487 59.1492 19 58.2652 19.052C58.0052 19.0347 57.8058 18.9913 57.6672 18.922C57.5458 18.8527 57.2772 18.662 56.8612 18.35C56.5318 18.038 55.8992 17.154 54.9632 15.698L54.4432 14.918C54.2178 15.4553 54.1052 15.7933 54.1052 15.932C54.0012 16.2267 53.9232 16.53 53.8712 16.842C53.7498 17.3793 53.6198 17.778 53.4812 18.038C53.4812 18.61 53.2472 18.896 52.7792 18.896C52.6232 18.896 52.4672 18.87 52.3112 18.818C52.0165 18.7313 51.7825 18.6013 51.6092 18.428C51.4532 18.2547 51.3752 17.9947 51.3752 17.648C51.3752 17.18 51.5138 16.5647 51.7912 15.802C51.8605 15.386 51.9298 15.048 51.9992 14.788C52.0858 14.5107 52.2158 14.242 52.3892 13.982C52.5278 13.566 52.6665 13.1847 52.8052 12.838C53.2732 11.5033 53.5765 10.5847 53.7152 10.082C53.9232 9.63133 54.1225 9.15467 54.3132 8.652C54.5212 8.21867 54.8245 7.51667 55.2232 6.546L55.5352 5.636C55.7778 4.856 56.0292 4.27533 56.2892 3.894C56.3412 3.82467 56.4972 3.582 56.7572 3.166C56.8785 2.94067 57.0605 2.828 57.3032 2.828C57.5632 2.828 57.7365 2.89733 57.8232 3.036C58.0832 3.15733 58.2825 3.374 58.4212 3.686C58.5598 3.98067 58.6118 4.21467 58.5772 4.388C58.5772 4.57867 58.5078 4.78667 58.3692 5.012C58.3172 5.064 58.2478 5.168 58.1612 5.324C58.0745 5.48 57.9705 5.64467 57.8492 5.818C57.7972 5.974 57.7278 6.19067 57.6412 6.468C57.5718 6.74533 57.4938 6.962 57.4072 7.118C57.3378 7.274 57.2425 7.46467 57.1212 7.69C57.0172 7.898 56.9478 8.054 56.9132 8.158C56.8265 8.38333 56.6792 8.72133 56.4712 9.172C56.1765 9.83067 55.9945 10.2727 55.9252 10.498L55.4312 11.85C55.7432 11.59 55.8992 11.46 55.8992 11.46C56.3845 11.1653 56.9738 10.732 57.6672 10.16C58.3778 9.588 58.8285 9.20667 59.0192 9.016C59.0712 8.92933 59.2098 8.886 59.4352 8.886C59.5738 8.886 59.7038 8.912 59.8252 8.964C60.2932 9.08533 60.5272 9.44067 60.5272 10.03C60.6138 10.394 60.1718 10.888 59.2012 11.512C58.7505 11.8067 58.3605 12.1013 58.0312 12.396C57.5632 12.6733 57.1818 12.9507 56.8872 13.228ZM63.7778 20.56C63.1018 20.5427 62.6164 20.378 62.3218 20.066C62.0444 19.7713 61.9058 19.3467 61.9058 18.792C61.9058 18.6533 61.9231 18.428 61.9578 18.116C62.0271 17.8733 62.0791 17.6307 62.1138 17.388C62.2004 17.0067 62.2871 16.7813 62.3738 16.712C62.3911 16.6947 62.4084 16.66 62.4258 16.608C62.4431 16.556 62.4258 16.5127 62.3738 16.478C62.3738 16.2527 62.4518 15.9407 62.6078 15.542C62.6424 15.4207 62.6858 15.2993 62.7378 15.178C62.7898 15.0567 62.8244 14.9787 62.8418 14.944C62.8071 14.9093 62.7898 14.8573 62.7898 14.788C62.7898 14.7013 62.8331 14.6147 62.9198 14.528C63.0238 14.4413 63.0931 14.3633 63.1278 14.294C63.1798 14.2247 63.1798 14.1553 63.1278 14.086C63.0931 13.9993 63.2578 13.6093 63.6218 12.916C63.8471 12.4653 63.9684 12.214 63.9858 12.162C63.9684 12.11 64.0898 11.7893 64.3498 11.2C64.6271 10.6107 64.8438 10.1687 64.9998 9.874C65.1558 9.78733 65.0951 9.72667 64.8178 9.692C64.5404 9.65733 64.2024 9.64867 63.8038 9.666C63.2318 9.64867 62.7898 9.62267 62.4778 9.588C62.1658 9.536 61.9144 9.458 61.7238 9.354C61.6024 9.23267 61.5418 9.07667 61.5418 8.886C61.5418 8.66067 61.6198 8.45267 61.7758 8.262C61.9491 8.07133 62.1571 7.96733 62.3998 7.95C62.8504 7.93267 63.5438 7.872 64.4798 7.768L65.8058 7.664L65.8838 7.222C65.9704 7.066 66.0484 6.936 66.1178 6.832C66.2044 6.71067 66.2564 6.60667 66.2738 6.52C66.3084 6.43333 66.3344 6.30333 66.3518 6.13C66.4038 6.06067 66.4904 5.88733 66.6118 5.61C66.7504 5.33267 66.8371 5.064 66.8718 4.804C67.0624 4.47467 67.2358 4.16267 67.3918 3.868C67.5651 3.556 67.6691 3.374 67.7038 3.322C68.0158 2.854 68.3624 2.62 68.7438 2.62C68.9518 2.62 69.1684 2.68933 69.3938 2.828C69.6191 2.984 69.7924 3.12267 69.9138 3.244C70.0351 3.36533 70.0958 3.53 70.0958 3.738C70.0958 3.894 70.0178 4.11933 69.8618 4.414C69.7924 4.55267 69.6884 4.83 69.5498 5.246C69.4284 5.402 69.2984 5.61867 69.1598 5.896C69.0211 6.156 68.9258 6.40733 68.8738 6.65C68.8391 6.73667 68.7871 6.858 68.7178 7.014C68.6484 7.15267 68.5964 7.23933 68.5618 7.274C68.5444 7.29133 68.5098 7.3 68.4578 7.3C68.4751 7.404 68.5098 7.47333 68.5618 7.508C68.6138 7.54267 68.7004 7.56 68.8218 7.56C68.9084 7.56 69.0124 7.55133 69.1338 7.534C69.2724 7.51667 69.4371 7.508 69.6278 7.508C69.8011 7.49067 69.9484 7.46467 70.0698 7.43C70.2084 7.39533 70.3384 7.378 70.4598 7.378C70.5291 7.378 70.6331 7.404 70.7718 7.456C70.8584 7.56 70.9018 7.75933 70.9018 8.054C70.9018 8.27933 70.8671 8.496 70.7978 8.704C70.7284 8.89467 70.6418 9.016 70.5378 9.068C70.4511 9.08533 70.2604 9.13733 69.9658 9.224C69.6711 9.31067 69.3504 9.36267 69.0038 9.38L67.6258 9.51L67.1838 10.394C67.0624 10.602 66.9584 10.8013 66.8718 10.992C66.7851 11.1827 66.7244 11.2953 66.6898 11.33C66.6898 11.4167 66.6204 11.59 66.4818 11.85C66.3431 12.11 66.2391 12.318 66.1698 12.474C66.0831 12.7167 65.9791 12.9593 65.8578 13.202C65.7364 13.4273 65.6584 13.5747 65.6238 13.644C65.5718 13.644 65.5371 13.6613 65.5198 13.696C65.5198 13.7133 65.5198 13.748 65.5198 13.8L65.5718 14.008C65.5718 14.0947 65.5284 14.1813 65.4418 14.268C65.3724 14.3027 65.3031 14.3633 65.2338 14.45C65.1818 14.5367 65.1471 14.5973 65.1298 14.632C65.1644 14.6667 65.1818 14.71 65.1818 14.762C65.1818 14.8833 65.1211 15.0393 64.9998 15.23C64.9998 15.5247 64.8784 15.9667 64.6358 16.556C64.6531 16.868 64.6704 17.0673 64.6878 17.154C64.7051 17.2407 64.7484 17.2753 64.8178 17.258H64.9478L65.5198 17.232C65.6411 17.18 65.6671 17.31 65.5978 17.622C65.5458 17.934 65.3984 18.4107 65.1558 19.052C64.8958 19.4507 64.6184 19.7973 64.3238 20.092C64.0464 20.404 63.8644 20.56 63.7778 20.56ZM72.2812 18.636C72.1079 18.6707 71.9519 18.688 71.8132 18.688C71.5879 18.688 71.3799 18.6707 71.1892 18.636C70.9985 18.584 70.9032 18.5233 70.9032 18.454C70.9032 18.402 70.8945 18.3673 70.8772 18.35C70.8599 18.3327 70.8252 18.324 70.7732 18.324C70.7212 18.272 70.5999 18.1853 70.4092 18.064C70.2359 17.9253 70.0885 17.83 69.9672 17.778C69.7592 17.4833 69.6552 17.1627 69.6552 16.816C69.6552 16.4867 69.7592 15.958 69.9672 15.23C69.9845 14.554 70.2272 13.8 70.6952 12.968C71.1805 12.1187 71.7612 11.3387 72.4372 10.628C73.1132 9.9 73.7199 9.38 74.2572 9.068C74.5172 8.808 74.8812 8.678 75.3492 8.678C75.7132 8.678 76.0339 8.756 76.3112 8.912C76.5365 9.05067 76.8139 9.34533 77.1432 9.796C77.4899 10.2467 77.7499 10.654 77.9232 11.018C77.9579 11.1393 78.0012 11.304 78.0532 11.512C78.1225 11.72 78.1572 11.9713 78.1572 12.266L78.1052 12.994C77.8972 13.7047 77.7932 14.346 77.7932 14.918C77.7585 15.1607 77.7759 15.36 77.8452 15.516C77.9145 15.6547 78.0099 15.724 78.1312 15.724C78.2179 15.724 78.3132 15.698 78.4172 15.646C78.5212 15.594 78.6425 15.568 78.7812 15.568C79.0065 15.568 79.1972 15.6373 79.3532 15.776C79.5092 15.9147 79.5872 16.088 79.5872 16.296C79.5872 16.4693 79.5439 16.634 79.4572 16.79C79.3012 17.1367 79.0065 17.4487 78.5732 17.726C78.1572 18.0033 77.7672 18.142 77.4032 18.142C77.1085 18.142 76.8225 17.986 76.5452 17.674C76.2852 17.362 76.0772 16.9547 75.9212 16.452L75.7652 15.854L74.8292 16.712L74.2312 17.31C73.9539 17.5873 73.7979 17.752 73.7632 17.804C73.6765 17.9427 73.5205 18.0727 73.2952 18.194C73.0872 18.3153 72.7492 18.4627 72.2812 18.636ZM72.9832 16.14C73.2952 15.9667 73.5552 15.75 73.7632 15.49C73.9885 15.23 74.2659 14.866 74.5952 14.398C74.6645 14.294 74.7339 14.19 74.8032 14.086C74.8725 13.9647 74.9592 13.8433 75.0632 13.722C75.3579 13.3233 75.5659 13.0027 75.6872 12.76C75.8259 12.5173 75.9299 12.2573 75.9992 11.98C75.9299 11.7547 75.8259 11.5467 75.6872 11.356C75.5659 11.148 75.4532 11.0353 75.3492 11.018C74.8639 11.018 74.2052 11.59 73.3732 12.734C73.2865 12.8553 73.1479 13.072 72.9572 13.384C72.7839 13.696 72.6712 13.904 72.6192 14.008C72.5325 14.1293 72.4112 14.424 72.2552 14.892C72.1165 15.3427 72.0472 15.6373 72.0472 15.776C72.0472 16.1573 72.1599 16.348 72.3852 16.348C72.5585 16.348 72.7579 16.2787 72.9832 16.14ZM84.9733 8.184C84.7653 8.184 84.5139 8.08867 84.2193 7.898C83.9246 7.70733 83.6646 7.46467 83.4393 7.17C83.2313 6.858 83.1273 6.546 83.1273 6.234C83.1273 6.13 83.3093 5.80933 83.6733 5.272C83.9159 4.94267 84.0373 4.74333 84.0373 4.674C84.1586 4.674 84.3146 4.7 84.5053 4.752C84.6959 4.804 84.8606 4.86467 84.9993 4.934C85.1033 5.17667 85.3113 5.48867 85.6233 5.87C85.8313 6.13 85.9786 6.34667 86.0653 6.52C86.1693 6.69333 86.2213 6.87533 86.2213 7.066C86.2213 7.44733 86.1173 7.73333 85.9093 7.924C85.7186 8.09733 85.4066 8.184 84.9733 8.184ZM81.4373 18.142C81.3853 18.142 81.2553 18.0987 81.0473 18.012C80.8566 17.9253 80.7266 17.8647 80.6573 17.83C80.6573 17.778 80.6313 17.6913 80.5793 17.57C80.5446 17.4313 80.5273 17.3447 80.5273 17.31C80.3713 17.2407 80.2413 17.128 80.1373 16.972C80.0506 16.7987 80.0333 16.6253 80.0853 16.452C80.3279 16.036 80.7613 15.0827 81.3853 13.592C82.0266 12.084 82.3819 11.2173 82.4513 10.992C82.4513 10.6107 82.5726 10.342 82.8153 10.186C82.9366 10.0993 83.0579 10.056 83.1793 10.056C83.4739 10.056 83.7513 10.2553 84.0113 10.654C84.2713 11.0527 84.4013 11.5207 84.4013 12.058C84.4013 12.266 84.2019 12.864 83.8033 13.852C83.4219 14.8227 82.9886 15.802 82.5033 16.79C82.2259 17.3447 82.0179 17.7087 81.8793 17.882C81.7579 18.0553 81.6106 18.142 81.4373 18.142ZM86.8268 19.286C86.7748 19.3033 86.7054 19.312 86.6188 19.312C86.2548 19.312 85.9514 19.104 85.7088 18.688C85.4661 18.272 85.3448 17.7433 85.3448 17.102C85.3448 16.7553 85.3794 16.4173 85.4488 16.088C85.6394 15.5853 85.7348 15.2213 85.7348 14.996C85.7868 14.6667 85.9601 14.0773 86.2548 13.228C86.5668 12.3613 86.7661 11.8413 86.8528 11.668C86.9221 11.668 86.9828 11.616 87.0348 11.512C87.0868 11.3907 87.1128 11.2607 87.1128 11.122C87.1128 10.966 87.1388 10.81 87.1908 10.654C87.2601 10.4807 87.3294 10.3593 87.3988 10.29C87.3988 10.238 87.4161 10.1427 87.4508 10.004C87.5028 9.86533 87.5288 9.77 87.5288 9.718C87.5288 9.68333 87.5461 9.62267 87.5808 9.536C87.6328 9.432 87.6588 9.354 87.6588 9.302C87.9361 8.76467 88.4214 7.56 89.1148 5.688C89.8081 3.79867 90.1548 2.75 90.1548 2.542C90.1548 2.40333 90.2068 2.27333 90.3108 2.152C90.4148 2.03067 90.5361 1.97 90.6748 1.97C90.7268 1.918 90.8394 1.88333 91.0128 1.866C91.1861 1.83133 91.3248 1.814 91.4288 1.814L91.8448 2.23C92.0354 2.40333 92.1828 2.55933 92.2868 2.698C92.3908 2.83667 92.4428 3.00133 92.4428 3.192C92.4428 3.504 92.3821 3.816 92.2608 4.128C92.1568 4.42267 91.8361 5.13333 91.2988 6.26C91.2641 6.34667 91.1254 6.65867 90.8828 7.196C90.7094 7.54267 90.6228 7.742 90.6228 7.794C90.6228 7.846 90.5881 7.95867 90.5188 8.132C90.4494 8.288 90.3888 8.45267 90.3368 8.626C90.1981 8.90333 89.9728 9.39733 89.6608 10.108C89.3661 10.8013 89.2188 11.1827 89.2188 11.252C89.2188 11.4427 89.1754 11.5813 89.0888 11.668C89.0368 11.668 89.0021 11.7113 88.9848 11.798C88.9674 11.8673 88.9588 11.9193 88.9588 11.954C88.9588 12.1273 88.8201 12.5867 88.5428 13.332L88.3088 14.086C87.9794 15.2127 87.7454 16.036 87.6068 16.556C87.4854 17.076 87.4248 17.518 87.4248 17.882C87.4248 18.2633 87.3641 18.5753 87.2428 18.818C87.1214 19.0607 86.9828 19.2167 86.8268 19.286Z" fill="#E18D01"/>
<path d="M105.384 9.068C105.332 9.13733 105.306 9.224 105.306 9.328C105.306 9.432 105.341 9.49267 105.41 9.51C105.375 9.614 105.315 9.80467 105.228 10.082C105.141 10.3593 105.046 10.654 104.942 10.966C104.89 11.59 104.682 12.3613 104.318 13.28C103.971 14.1813 103.642 14.9007 103.33 15.438C103.243 15.438 103.174 15.4553 103.122 15.49C103.07 15.5073 103.079 15.5247 103.148 15.542C103.148 15.6287 103.053 15.7933 102.862 16.036C102.81 16.0707 102.697 16.2007 102.524 16.426C102.368 16.634 102.255 16.764 102.186 16.816C102.169 16.9373 102.117 17.0413 102.03 17.128C101.943 17.1973 101.865 17.232 101.796 17.232C101.796 17.232 101.779 17.2407 101.744 17.258C101.727 17.258 101.718 17.284 101.718 17.336C101.406 17.7867 100.782 18.402 99.8459 19.182C98.9272 19.9793 98.1472 20.508 97.5059 20.768C97.3325 20.8893 97.1245 21.002 96.8819 21.106C96.6565 21.21 96.5005 21.2793 96.4139 21.314C96.2925 21.418 95.6425 21.522 94.4639 21.626C94.2905 21.6433 94.0999 21.6607 93.8919 21.678C93.6839 21.6953 93.4759 21.7213 93.2679 21.756C93.1639 21.7733 92.9905 21.782 92.7479 21.782C92.1932 21.782 91.4652 21.6693 90.5639 21.444C90.3385 21.3747 90.1739 21.2967 90.0699 21.21C89.9659 21.1233 89.8445 20.9933 89.7059 20.82C89.5845 20.664 89.4892 20.5427 89.4199 20.456C89.1945 20.1267 89.0819 19.754 89.0819 19.338C89.0819 19.0433 89.1425 18.8007 89.2639 18.61C89.4025 18.402 89.6105 18.272 89.8879 18.22H89.9659C90.0352 18.22 90.1739 18.2547 90.3819 18.324C90.3819 17.8213 90.4425 17.362 90.5639 16.946C90.7199 16.2353 91.2052 14.71 92.0199 12.37L92.3319 11.486C92.4532 11.1913 92.6265 10.6367 92.8519 9.822C93.0425 9.18067 93.2505 8.522 93.4759 7.846C93.7185 7.17 93.8919 6.74533 93.9959 6.572C94.0479 6.43333 94.0999 6.24267 94.1519 6C94.4119 5.116 94.6719 4.35333 94.9319 3.712L95.1139 2.854L94.8279 2.724C94.6719 2.776 94.5332 2.802 94.4119 2.802C94.3252 2.802 94.2299 2.776 94.1259 2.724C93.9699 2.776 93.7532 2.68933 93.4759 2.464C93.2159 2.23867 93.0685 2.03933 93.0339 1.866C92.9992 1.814 92.9732 1.736 92.9559 1.632C92.9559 1.528 92.9559 1.45867 92.9559 1.424C92.9732 1.30267 93.1812 1.17267 93.5799 1.034C93.9785 0.877999 94.4725 0.747999 95.0619 0.643999C95.6512 0.54 96.2145 0.488 96.7519 0.488C96.9945 0.488 97.1765 0.496666 97.2979 0.513999C97.7312 0.548666 98.2685 0.652665 98.9099 0.825998C99.5512 0.981998 100.132 1.15533 100.652 1.346C101.224 1.554 101.831 1.918 102.472 2.438C103.131 2.958 103.711 3.56467 104.214 4.258C104.734 4.95133 105.081 5.662 105.254 6.39C105.306 6.61533 105.358 6.92733 105.41 7.326C105.462 7.72467 105.488 8.08 105.488 8.392C105.488 8.756 105.453 8.98133 105.384 9.068ZM102.758 10.602C102.914 9.874 102.992 9.198 102.992 8.574C102.992 6.78867 102.351 5.35 101.068 4.258C100.704 3.946 100.106 3.608 99.2739 3.244C98.4592 2.88 97.9912 2.71533 97.8699 2.75C97.7832 2.76733 97.5579 3.25267 97.1939 4.206C96.8472 5.15933 96.4745 6.21667 96.0759 7.378L94.9059 10.654C94.8365 10.9313 94.7585 11.1913 94.6719 11.434C94.5852 11.6767 94.5159 11.8933 94.4639 12.084C94.2385 12.7253 94.1259 13.0893 94.1259 13.176C93.6232 13.956 93.2505 15.2733 93.0079 17.128C92.9732 17.232 92.8779 17.6307 92.7219 18.324C92.6005 18.896 92.5139 19.1733 92.4619 19.156L92.4359 19.39C92.7479 19.5287 93.0512 19.5807 93.3459 19.546C93.4499 19.5287 93.5885 19.5113 93.7619 19.494C93.9525 19.4767 94.0912 19.468 94.1779 19.468C94.6979 19.4333 95.0792 19.39 95.3219 19.338C95.5819 19.3033 95.7985 19.2167 95.9719 19.078C96.7345 18.558 97.3499 18.116 97.8179 17.752C98.3032 17.3707 98.5979 17.128 98.7019 17.024C98.7365 16.9373 98.9185 16.8333 99.2479 16.712L99.9759 15.958C100.409 15.49 100.687 15.2127 100.808 15.126C100.825 15.0047 100.851 14.8833 100.886 14.762C100.938 14.6233 100.964 14.5193 100.964 14.45C101.172 14.2247 101.484 13.6873 101.9 12.838C102.316 11.9713 102.602 11.226 102.758 10.602ZM112.194 19.728C111.466 19.9707 110.677 20.092 109.828 20.092C108.528 20.092 107.271 19.7887 106.058 19.182C106.023 18.9913 105.945 18.818 105.824 18.662C105.702 18.4887 105.564 18.3933 105.408 18.376C105.356 18.3587 105.269 18.272 105.148 18.116C105.026 17.9427 104.94 17.8213 104.888 17.752C104.818 17.4053 104.784 17.1973 104.784 17.128C104.784 16.972 104.81 16.7293 104.862 16.4C104.914 16.0707 104.957 15.828 104.992 15.672L105.252 14.97C105.668 13.7567 106.127 12.5867 106.63 11.46L107.15 10.134C107.93 8.21 108.441 6.91867 108.684 6.26C108.926 5.60133 109.048 5.13333 109.048 4.856C109.048 4.7 109.004 4.518 108.918 4.31C108.866 4.154 108.84 4.00667 108.84 3.868C108.84 3.38267 109.091 3.04467 109.594 2.854C110.114 2.57667 110.746 2.29933 111.492 2.022C112.237 1.74467 112.818 1.58 113.234 1.528C113.32 1.51067 113.459 1.502 113.65 1.502C114.256 1.502 114.915 1.59733 115.626 1.788C116.354 1.96133 116.752 2.16067 116.822 2.386L116.978 2.438C116.995 2.438 117.038 2.45533 117.108 2.49C117.177 2.52467 117.272 2.594 117.394 2.698C117.567 2.81933 117.714 3.04467 117.836 3.374C117.957 3.686 118.018 3.98067 118.018 4.258C118.018 4.37933 118.009 4.466 117.992 4.518C117.992 4.57 118.009 4.7 118.044 4.908C118.096 5.09867 118.139 5.25467 118.174 5.376C118.191 5.48 118.2 5.636 118.2 5.844C118.2 6.81467 117.749 7.78533 116.848 8.756L116.51 9.198C116.475 9.25 116.38 9.36267 116.224 9.536C116.085 9.70933 115.981 9.78733 115.912 9.77C115.617 10.03 115.47 10.2467 115.47 10.42C115.47 10.5067 115.522 10.5673 115.626 10.602C115.66 10.654 115.73 10.758 115.834 10.914C115.955 11.07 116.111 11.2607 116.302 11.486C116.752 12.1793 116.978 12.994 116.978 13.93C116.978 14.4153 116.917 14.8487 116.796 15.23C116.674 15.6807 116.38 16.2007 115.912 16.79C115.444 17.3793 114.872 17.9427 114.196 18.48C113.537 19.0173 112.87 19.4333 112.194 19.728ZM109.854 10.732C110.044 10.6973 110.287 10.6193 110.582 10.498C111.032 10.342 111.327 10.2467 111.466 10.212C112.419 9.91733 113.242 9.47533 113.936 8.886C114.629 8.29667 115.123 7.586 115.418 6.754C115.487 6.61533 115.548 6.39867 115.6 6.104C115.669 5.80933 115.704 5.54933 115.704 5.324C115.704 5.18533 115.695 5.09 115.678 5.038V4.83C115.452 4.258 114.88 3.972 113.962 3.972C113.32 3.972 112.644 4.11067 111.934 4.388C111.743 4.47467 111.613 4.60467 111.544 4.778C111.474 4.934 111.414 5.12467 111.362 5.35C111.327 5.57533 111.301 5.74867 111.284 5.87C111.214 6.25133 111.102 6.64133 110.946 7.04L110.738 7.664C110.738 7.69867 110.694 7.75933 110.608 7.846C110.538 7.93267 110.504 8.01933 110.504 8.106C110.469 8.17533 110.4 8.33133 110.296 8.574C110.192 8.79933 110.105 9.03333 110.036 9.276C109.932 9.51867 109.845 9.75267 109.776 9.978C109.724 10.186 109.689 10.3247 109.672 10.394C109.672 10.446 109.689 10.5327 109.724 10.654C109.758 10.7753 109.802 10.8013 109.854 10.732ZM109.49 17.648C109.784 17.7 110.07 17.726 110.348 17.726C111.804 17.726 113 16.998 113.936 15.542C114.404 14.9527 114.638 14.4413 114.638 14.008C114.638 13.6613 114.49 13.2627 114.196 12.812C113.988 12.5173 113.797 12.3093 113.624 12.188C113.45 12.0493 113.26 11.98 113.052 11.98C112.878 11.98 112.61 12.0407 112.246 12.162L111.726 12.318C111.31 12.3873 110.686 12.5693 109.854 12.864C109.282 13.0547 108.952 13.15 108.866 13.15C108.796 13.202 108.675 13.3233 108.502 13.514C108.328 13.7047 108.233 13.8347 108.216 13.904C108.112 13.9387 108.008 14.0687 107.904 14.294C107.817 14.5193 107.756 14.7447 107.722 14.97C107.687 15.1953 107.696 15.3167 107.748 15.334C107.817 15.3513 107.808 15.4987 107.722 15.776C107.635 16.0533 107.574 16.2613 107.54 16.4C107.505 16.5387 107.488 16.6253 107.488 16.66C107.488 16.972 107.67 17.206 108.034 17.362C108.415 17.518 108.9 17.6133 109.49 17.648Z" fill="#633E12"/>
</svg>
